<svg xmlns="http://www.w3.org/2000/svg" version="1.1" xmlns:xlink="http://www.w3.org/1999/xlink" xmlns:svgjs="http://svgjs.dev/svgjs" width="2000" height="757" viewBox="0 0 2000 757"><g transform="matrix(1,0,0,1,-1.2121212121212466,0.103202040343092)"><svg viewBox="0 0 396 150" data-background-color="#ffffff" preserveAspectRatio="xMidYMid meet" height="757" width="2000" xmlns="http://www.w3.org/2000/svg" xmlns:xlink="http://www.w3.org/1999/xlink"><g id="tight-bounds" transform="matrix(1,0,0,1,0.2400000000000091,-0.02044954060251314)"><svg viewBox="0 0 395.52 150.04089503615697" height="150.04089503615697" width="395.52"><g><svg viewBox="0 0 638.5383870765513 242.23015552161664" height="150.04089503615697" width="395.52"><g transform="matrix(1,0,0,1,241.04078707655134,74.85263400190522)"><svg viewBox="0 0 397.4975999999999 92.5248875178062" height="92.5248875178062" width="397.4975999999999"><g id="textblocktransform"><svg viewBox="0 0 397.4975999999999 92.5248875178062" height="92.5248875178062" width="397.4975999999999" id="textblock"><g><rect width="397.4975999999999" height="4.669250134394555" x="0" y="57.27683607592617" fill="#729343" opacity="1" stroke-width="0" stroke="transparent" fill-opacity="1" class="rect-o-0" data-fill-palette-color="primary" rx="1%" id="o-0" data-palette-color="#729343"></rect></g><g transform="matrix(1,0,0,1,0.9887999999999693,0)"><svg viewBox="0 0 395.52 51.77641052493782" height="51.77641052493782" width="395.52"><g transform="matrix(1,0,0,1,0,0)"><svg width="395.52" viewBox="0.9000000357627869 -37.5 381.9100036621094 50" height="51.77641052493782" data-palette-color="#729343"><path d="M17.85-37.4L17.85-22.5 25.2-22.5 25.2-37.4 32.4-37.4 32.4 0 25.2 0 25.2-18.8 17.85-18.8 17.85 0 10.65 0 10.65-33.9Q8.25-32.75 6.95-30.63 5.65-28.5 5.65-25.5L5.65-25.5Q5.65-23.9 5.88-22.93 6.1-21.95 6.38-21.3 6.65-20.65 6.95-20.3 7.25-19.95 7.4-19.65L7.4-19.65Q4.4-19.65 2.65-21.03 0.9-22.4 0.9-25.7L0.9-25.7Q0.9-28.1 2.15-30.23 3.4-32.35 5.48-33.98 7.55-35.6 10.23-36.55 12.9-37.5 15.75-37.5L15.75-37.5Q16.3-37.5 16.82-37.48 17.35-37.45 17.85-37.4L17.85-37.4ZM50.45-25L57.65-25 57.65-8Q57.65-5.9 58.22-5.23 58.8-4.55 60.25-4.55L60.25-4.55Q61.7-4.55 62.67-5.8 63.65-7.05 63.8-8.95L63.8-8.95 65.9-8.95Q65.5-5.9 64.5-4.08 63.5-2.25 62.25-1.28 61-0.3 59.7 0 58.4 0.3 57.4 0.3L57.4 0.3Q54.75 0.3 53.37-0.93 52-2.15 51.45-4.3L51.45-4.3Q51.05-3.45 50.5-2.63 49.95-1.8 49.17-1.15 48.4-0.5 47.37-0.1 46.35 0.3 45 0.3L45 0.3Q43.4 0.3 41.85-0.3 40.3-0.9 39.02-2.25 37.75-3.6 36.97-5.83 36.2-8.05 36.2-11.3L36.2-11.3Q36.2-13.6 36.72-16.05 37.25-18.5 38.37-20.55 39.5-22.6 41.32-23.93 43.15-25.25 45.75-25.25L45.75-25.25Q46.35-25.25 47.05-25.18 47.75-25.1 48.4-24.83 49.05-24.55 49.6-24.03 50.15-23.5 50.45-22.6L50.45-22.6 50.45-25ZM50.45-8.95L50.45-20.2Q50.4-20.4 50.25-20.73 50.1-21.05 49.8-21.38 49.5-21.7 49.05-21.93 48.6-22.15 48-22.15L48-22.15Q46.8-22.15 45.92-21.13 45.05-20.1 44.52-18.57 44-17.05 43.75-15.23 43.5-13.4 43.5-11.75L43.5-11.75Q43.5-9.1 43.9-7.63 44.3-6.15 44.87-5.48 45.45-4.8 46.1-4.67 46.75-4.55 47.2-4.55L47.2-4.55Q47.75-4.55 48.32-4.83 48.9-5.1 49.37-5.65 49.85-6.2 50.15-7.03 50.45-7.85 50.45-8.95L50.45-8.95ZM63.35-26.85L70.55-26.85 70.55-23.1Q71.4-24 72.7-24.63 74-25.25 75.84-25.25L75.84-25.25Q77.55-25.25 79.07-24.6 80.59-23.95 81.77-22.53 82.95-21.1 83.65-18.75 84.34-16.4 84.34-13.05L84.34-13.05Q84.34-10.65 83.92-8.25 83.5-5.85 82.45-3.95 81.4-2.05 79.62-0.88 77.84 0.3 75.2 0.3L75.2 0.3Q73.3 0.3 72.2-0.23 71.09-0.75 70.55-1.45L70.55-1.45 70.55 10.7 63.35 12.5 63.35-26.85ZM72.8-4.05L72.8-4.05Q74.09-4.05 75-4.93 75.9-5.8 76.42-7.2 76.95-8.6 77.17-10.33 77.4-12.05 77.4-13.75L77.4-13.75Q77.4-16.5 76.92-18.1 76.45-19.7 75.8-20.48 75.15-21.25 74.52-21.45 73.9-21.65 73.55-21.65L73.55-21.65Q72.65-21.65 71.8-21.03 70.95-20.4 70.55-19.15L70.55-19.15 70.55-5.2Q70.8-4.8 71.34-4.42 71.9-4.05 72.8-4.05ZM86.74-26.85L93.94-26.85 93.94-23.1Q94.79-24 96.09-24.63 97.39-25.25 99.24-25.25L99.24-25.25Q100.94-25.25 102.47-24.6 103.99-23.95 105.17-22.53 106.34-21.1 107.04-18.75 107.74-16.4 107.74-13.05L107.74-13.05Q107.74-10.65 107.32-8.25 106.89-5.85 105.84-3.95 104.79-2.05 103.02-0.88 101.24 0.3 98.59 0.3L98.59 0.3Q96.69 0.3 95.59-0.23 94.49-0.75 93.94-1.45L93.94-1.45 93.94 10.7 86.74 12.5 86.74-26.85ZM96.19-4.05L96.19-4.05Q97.49-4.05 98.39-4.93 99.29-5.8 99.82-7.2 100.34-8.6 100.57-10.33 100.79-12.05 100.79-13.75L100.79-13.75Q100.79-16.5 100.32-18.1 99.84-19.7 99.19-20.48 98.54-21.25 97.92-21.45 97.29-21.65 96.94-21.65L96.94-21.65Q96.04-21.65 95.19-21.03 94.34-20.4 93.94-19.15L93.94-19.15 93.94-5.2Q94.19-4.8 94.74-4.42 95.29-4.05 96.19-4.05ZM122.49-25L129.69-25 129.69-1.8Q130.74-2.2 131.54-2.75 132.34-3.3 132.94-4.13 133.54-4.95 133.92-6.13 134.29-7.3 134.49-8.95L134.49-8.95 136.59-8.95Q136.34-6.45 135.67-4.83 134.99-3.2 134.02-2.15 133.04-1.1 131.92-0.5 130.79 0.1 129.69 0.45L129.69 0.45 129.69 4Q129.69 6.65 129.04 8.33 128.39 10 127.37 10.93 126.34 11.85 125.12 12.18 123.89 12.5 122.74 12.5L122.74 12.5Q121.29 12.5 120.02 12.1 118.74 11.7 117.82 10.98 116.89 10.25 116.34 9.2 115.79 8.15 115.79 6.85L115.79 6.85Q115.79 5.5 116.37 4.42 116.94 3.35 117.89 2.55 118.84 1.75 120.04 1.18 121.24 0.6 122.49 0.2L122.49 0.2 122.49-2.55Q121.84-1.6 121.12-1.05 120.39-0.5 119.67-0.2 118.94 0.1 118.22 0.2 117.49 0.3 116.84 0.3L116.84 0.3Q113.29 0.3 111.72-1.8 110.14-3.9 110.14-7.45L110.14-7.45 110.14-25 117.34-25 117.34-8Q117.34-6.1 117.87-5.33 118.39-4.55 119.39-4.55L119.39-4.55Q120.74-4.55 121.54-5.8 122.34-7.05 122.49-8.95L122.49-8.95 122.49-25ZM118.44 6.4L118.44 6.4Q118.44 7.4 119.12 8 119.79 8.6 120.49 8.6L120.49 8.6Q121.39 8.6 121.94 7.5 122.49 6.4 122.49 4.15L122.49 4.15 122.49 2.7Q120.79 3.4 119.62 4.3 118.44 5.2 118.44 6.4ZM171.94-31L171.94-31Q170.34-31 168.34-31.33 166.34-31.65 164.19-32.1L164.19-32.1 164.19 0 156.94 0 156.94-33.1 156.44-33.1Q154.19-33.1 152.69-32.58 151.19-32.05 150.29-31.08 149.39-30.1 149.04-28.65 148.69-27.2 148.69-25.4L148.69-25.4Q148.69-23.75 148.91-22.75 149.14-21.75 149.44-21.13 149.74-20.5 150.04-20.18 150.34-19.85 150.54-19.6L150.54-19.6Q147.39-19.6 145.61-21.08 143.84-22.55 143.84-26.3L143.84-26.3Q143.84-28.65 144.64-30.7 145.44-32.75 147.21-34.25 148.99-35.75 151.81-36.6 154.64-37.45 158.74-37.45L158.74-37.45Q160.74-37.45 162.36-37.27 163.99-37.1 165.41-36.88 166.84-36.65 168.24-36.48 169.64-36.3 171.19-36.3L171.19-36.3Q173.29-36.3 174.71-36.63 176.14-36.95 177.09-37.35L177.09-37.35Q177.24-36.35 177.24-35.6L177.24-35.6Q177.24-33.35 176.01-32.18 174.79-31 171.94-31ZM171.03-25L178.23-25 178.23-21.9Q179.33-23.2 180.68-24.23 182.03-25.25 183.63-25.25L183.63-25.25Q184.58-25.25 185.36-24.85 186.13-24.45 186.71-23.8 187.28-23.15 187.61-22.38 187.93-21.6 187.93-20.8L187.93-20.8Q187.93-19.7 187.26-18.78 186.58-17.85 185.03-17.85L185.03-17.85Q183.88-17.85 183.43-18.35 182.98-18.85 182.73-19.43 182.48-20 182.21-20.5 181.93-21 181.23-21L181.23-21Q180.48-21 179.76-20.43 179.03-19.85 178.23-19L178.23-19 178.23 0 171.03 0 171.03-25ZM203.23-25L210.43-25 210.43-8Q210.43-5.9 211.01-5.23 211.58-4.55 213.03-4.55L213.03-4.55Q214.48-4.55 215.46-5.8 216.43-7.05 216.58-8.95L216.58-8.95 218.68-8.95Q218.28-5.9 217.28-4.08 216.28-2.25 215.03-1.28 213.78-0.3 212.48 0 211.18 0.3 210.18 0.3L210.18 0.3Q207.53 0.3 206.16-0.93 204.78-2.15 204.23-4.3L204.23-4.3Q203.83-3.45 203.28-2.63 202.73-1.8 201.96-1.15 201.18-0.5 200.16-0.1 199.13 0.3 197.78 0.3L197.78 0.3Q196.18 0.3 194.63-0.3 193.08-0.9 191.81-2.25 190.53-3.6 189.76-5.83 188.98-8.05 188.98-11.3L188.98-11.3Q188.98-13.6 189.51-16.05 190.03-18.5 191.16-20.55 192.28-22.6 194.11-23.93 195.93-25.25 198.53-25.25L198.53-25.25Q199.13-25.25 199.83-25.18 200.53-25.1 201.18-24.83 201.83-24.55 202.38-24.03 202.93-23.5 203.23-22.6L203.23-22.6 203.23-25ZM203.23-8.95L203.23-20.2Q203.18-20.4 203.03-20.73 202.88-21.05 202.58-21.38 202.28-21.7 201.83-21.93 201.38-22.15 200.78-22.15L200.78-22.15Q199.58-22.15 198.71-21.13 197.83-20.1 197.31-18.57 196.78-17.05 196.53-15.23 196.28-13.4 196.28-11.75L196.28-11.75Q196.28-9.1 196.68-7.63 197.08-6.15 197.66-5.48 198.23-4.8 198.88-4.67 199.53-4.55 199.98-4.55L199.98-4.55Q200.53-4.55 201.11-4.83 201.68-5.1 202.16-5.65 202.63-6.2 202.93-7.03 203.23-7.85 203.23-8.95L203.23-8.95ZM216.13-25L223.33-25 223.33-8Q223.33-5.9 223.9-5.23 224.48-4.55 225.93-4.55L225.93-4.55Q227.38-4.55 228.35-5.8 229.33-7.05 229.48-8.95L229.48-8.95 231.58-8.95Q231.18-5.9 230.18-4.08 229.18-2.25 227.93-1.28 226.68-0.3 225.38 0 224.08 0.3 223.08 0.3L223.08 0.3Q219.23 0.3 217.68-1.83 216.13-3.95 216.13-7.45L216.13-7.45 216.13-25ZM215.58-31.65L215.58-31.65Q215.58-33.3 216.73-34.48 217.88-35.65 219.53-35.65L219.53-35.65Q221.18-35.65 222.35-34.48 223.53-33.3 223.53-31.65L223.53-31.65Q223.53-30 222.35-28.85 221.18-27.7 219.53-27.7L219.53-27.7Q217.88-27.7 216.73-28.85 215.58-30 215.58-31.65ZM229.48-34L236.68-35 236.68-8Q236.68-5.9 237.25-5.23 237.83-4.55 239.28-4.55L239.28-4.55Q240.73-4.55 241.7-5.8 242.68-7.05 242.83-8.95L242.83-8.95 244.93-8.95Q244.53-5.9 243.53-4.08 242.53-2.25 241.28-1.28 240.03-0.3 238.73 0 237.43 0.3 236.43 0.3L236.43 0.3Q232.58 0.3 231.03-1.83 229.48-3.95 229.48-7.45L229.48-7.45 229.48-34ZM261.92-8.95L264.02-8.95Q262.47-6.6 260.72-5.1 258.97-3.6 257.47-2.55L257.47-2.55Q256.17-1 254.22-0.35 252.27 0.3 250.47 0.3L250.47 0.3Q248.27 0.3 246.62-0.4 244.97-1.1 243.87-2.18 242.77-3.25 242.22-4.58 241.67-5.9 241.67-7.1L241.67-7.1Q241.67-8.45 242.2-9.4 242.72-10.35 243.52-10.75L243.52-10.75Q244.97-14.5 245.95-18.18 246.92-21.85 247.32-25.55L247.32-25.55 254.52-26.55Q255.77-21.7 256.62-18.68 257.47-15.65 257.97-13.63 258.47-11.6 258.67-10.1 258.87-8.6 258.87-6.75L258.87-6.75 258.87-6.45Q260.67-7.7 261.92-8.95L261.92-8.95ZM247.47-8.5L247.47-8.5Q247.47-7.75 247.02-7.13 246.57-6.5 245.72-6.5L245.72-6.5Q245.32-6.5 244.9-6.63 244.47-6.75 244.22-7.15L244.22-7.15Q244.62-5.4 245.5-4.53 246.37-3.65 248.02-3.65L248.02-3.65Q249.47-3.65 250.52-4.42 251.57-5.2 251.57-7.15L251.57-7.15Q251.57-8.5 251.42-9.58 251.27-10.65 250.95-12 250.62-13.35 250.1-15.2 249.57-17.05 248.82-19.85L248.82-19.85Q248.32-17.45 247.6-15.23 246.87-13 246.07-10.6L246.07-10.6Q246.62-10.35 247.05-9.83 247.47-9.3 247.47-8.5ZM298.07-9L299.32-8.5Q298.77-6.25 297.54-4.53 296.32-2.8 294.59-1.6 292.87-0.4 290.74 0.2 288.62 0.8 286.27 0.8L286.27 0.8Q279.82 0.8 276.24-3.75 272.67-8.3 272.67-17.5L272.67-17.5Q272.67-20.9 273.27-24.45 273.87-28 275.37-30.9 276.87-33.8 279.39-35.65 281.92-37.5 285.77-37.5L285.77-37.5Q287.62-37.5 289.37-37.02 291.12-36.55 292.44-35.58 293.77-34.6 294.57-33.1 295.37-31.6 295.37-29.6L295.37-29.6Q295.37-28.1 294.79-27.15 294.22-26.2 292.67-26.2L292.67-26.2Q292.07-26.2 291.24-26.43 290.42-26.65 289.52-27.5L289.52-27.5Q290.17-27.9 290.57-28.98 290.97-30.05 290.97-31.1L290.97-31.1Q290.97-32.7 290.02-33.93 289.07-35.15 287.47-35.15L287.47-35.15Q285.77-35.15 284.52-33.7 283.27-32.25 282.44-29.88 281.62-27.5 281.22-24.48 280.82-21.45 280.82-18.3L280.82-18.3Q280.82-14.15 281.49-11.35 282.17-8.55 283.32-6.85 284.47-5.15 286.04-4.45 287.62-3.75 289.42-3.75L289.42-3.75Q292.27-3.75 294.54-5.18 296.82-6.6 298.07-9L298.07-9ZM311.32-25L318.52-25 318.52-8Q318.52-5.9 319.09-5.23 319.67-4.55 321.12-4.55L321.12-4.55Q322.57-4.55 323.54-5.8 324.52-7.05 324.67-8.95L324.67-8.95 326.77-8.95Q326.37-5.9 325.37-4.08 324.37-2.25 323.12-1.28 321.87-0.3 320.57 0 319.27 0.3 318.27 0.3L318.27 0.3Q315.62 0.3 314.24-0.93 312.87-2.15 312.32-4.3L312.32-4.3Q311.92-3.45 311.37-2.63 310.82-1.8 310.04-1.15 309.27-0.5 308.24-0.1 307.22 0.3 305.87 0.3L305.87 0.3Q304.27 0.3 302.72-0.3 301.17-0.9 299.89-2.25 298.62-3.6 297.84-5.83 297.07-8.05 297.07-11.3L297.07-11.3Q297.07-13.6 297.59-16.05 298.12-18.5 299.24-20.55 300.37-22.6 302.19-23.93 304.02-25.25 306.62-25.25L306.62-25.25Q307.22-25.25 307.92-25.18 308.62-25.1 309.27-24.83 309.92-24.55 310.47-24.03 311.02-23.5 311.32-22.6L311.32-22.6 311.32-25ZM311.32-8.95L311.32-20.2Q311.27-20.4 311.12-20.73 310.97-21.05 310.67-21.38 310.37-21.7 309.92-21.93 309.47-22.15 308.87-22.15L308.87-22.15Q307.67-22.15 306.79-21.13 305.92-20.1 305.39-18.57 304.87-17.05 304.62-15.23 304.37-13.4 304.37-11.75L304.37-11.75Q304.37-9.1 304.77-7.63 305.17-6.15 305.74-5.48 306.32-4.8 306.97-4.67 307.62-4.55 308.07-4.55L308.07-4.55Q308.62-4.55 309.19-4.83 309.77-5.1 310.24-5.65 310.72-6.2 311.02-7.03 311.32-7.85 311.32-8.95L311.32-8.95ZM349.31-15.1L349.31-15.1Q349.31-18.1 348.61-19.38 347.91-20.65 346.71-20.65L346.71-20.65Q345.26-20.65 344.59-19.28 343.91-17.9 343.76-16.05L343.76-16.05 343.76 0 336.56 0 336.56-17.25Q336.56-17.85 336.46-18.48 336.36-19.1 336.11-19.58 335.86-20.05 335.44-20.38 335.01-20.7 334.36-20.7L334.36-20.7Q333.01-20.7 332.29-19.33 331.56-17.95 331.41-16.05L331.41-16.05 331.41 0 324.21 0 324.21-25 331.41-25 331.41-22.4Q332.61-24.2 334.09-24.73 335.56-25.25 336.86-25.25L336.86-25.25Q338.71-25.25 340.31-24.35 341.91-23.45 342.91-20.95L342.91-20.95Q343.51-22.3 344.29-23.15 345.06-24 345.89-24.45 346.71-24.9 347.54-25.05 348.36-25.2 349.11-25.2L349.11-25.2Q350.51-25.2 351.79-24.75 353.06-24.3 354.04-23.23 355.01-22.15 355.56-20.38 356.11-18.6 356.11-16L356.11-16Q356.11-15.35 356.09-14.38 356.06-13.4 356.01-12.4 355.96-11.4 355.94-10.45 355.91-9.5 355.91-8.85L355.91-8.85Q355.91-6.7 356.44-5.63 356.96-4.55 358.51-4.55L358.51-4.55Q359.36-4.55 359.91-4.88 360.46-5.2 360.81-5.8 361.16-6.4 361.39-7.2 361.61-8 361.81-8.95L361.81-8.95 363.91-8.95Q363.51-6 362.71-4.17 361.91-2.35 360.91-1.35 359.91-0.35 358.74-0.03 357.56 0.3 356.41 0.3L356.41 0.3Q352.66 0.3 350.94-2.25 349.21-4.8 349.21-9.05L349.21-9.05Q349.21-9.5 349.24-10.33 349.26-11.15 349.26-12.05 349.26-12.95 349.29-13.8 349.31-14.65 349.31-15.1ZM361.81-26.85L369.01-26.85 369.01-23.1Q369.86-24 371.16-24.63 372.46-25.25 374.31-25.25L374.31-25.25Q376.01-25.25 377.54-24.6 379.06-23.95 380.24-22.53 381.41-21.1 382.11-18.75 382.81-16.4 382.81-13.05L382.81-13.05Q382.81-10.65 382.39-8.25 381.96-5.85 380.91-3.95 379.86-2.05 378.09-0.88 376.31 0.3 373.66 0.3L373.66 0.3Q371.76 0.3 370.66-0.23 369.56-0.75 369.01-1.45L369.01-1.45 369.01 10.7 361.81 12.5 361.81-26.85ZM371.26-4.05L371.26-4.05Q372.56-4.05 373.46-4.93 374.36-5.8 374.89-7.2 375.41-8.6 375.64-10.33 375.86-12.05 375.86-13.75L375.86-13.75Q375.86-16.5 375.39-18.1 374.91-19.7 374.26-20.48 373.61-21.25 372.99-21.45 372.36-21.65 372.01-21.65L372.01-21.65Q371.11-21.65 370.26-21.03 369.41-20.4 369.01-19.15L369.01-19.15 369.01-5.2Q369.26-4.8 369.81-4.42 370.36-4.05 371.26-4.05Z" opacity="1" transform="matrix(1,0,0,1,0,0)" fill="#729343" class="wordmark-text-0" data-fill-palette-color="primary" id="text-0"></path></svg></g></svg></g><g transform="matrix(1,0,0,1,0,67.44651176130907)"><svg viewBox="0 0 232.209792 25.078375756497117" height="25.078375756497117" width="232.209792"><g transform="matrix(1,0,0,1,0,0)"><svg width="232.209792" viewBox="2.5 -40.20000076293945 494.4100036621094 53.400001525878906" height="25.078375756497117" data-palette-color="#096a2e"><path d="M35.25-40.2L35.25-28.7 33.75-28.2 27.8-37.05 14-37.05 14-21.2 21.85-21.2 25.5-27.6 27.05-27.6 27.05-13.9 25.05-12.9 22-18.95 13.95-18.95 13.95-4.15 21.7-2 20.7 0 3 0 3-1.55 7.7-5.25 7.7-35.55 2.5-37.3 3.5-39.3 32.5-39.3 35.25-40.2ZM67.4-2L66.4 0 56.9 0 56.9-5.2 50.55 0.1Q49.5 0.5 47.8 0.5L47.8 0.5Q44.4 0.5 42.4-1.58 40.4-3.65 40.4-7.2L40.4-7.2 40.4-19.15 35.95-21.75 35.95-23.3 44.5-27.5 46.4-27.5 46.4-9.7Q46.4-6.95 47.25-5.85 48.1-4.75 50.3-4.75L50.3-4.75Q51.85-4.75 53.35-5.33 54.85-5.9 56.9-7.6L56.9-7.6 56.9-19.15 52.45-21.75 52.45-23.3 61-27.5 62.9-27.5 62.9-3.75 67.4-2ZM103.85-1.95L102.85 0.05 93.35 0.05 93.35-16.8Q93.35-19.55 92.5-20.65 91.65-21.75 89.45-21.75L89.45-21.75Q87.8-21.75 86.17-21.15 84.55-20.55 82.35-18.85L82.35-18.85 82.35-3.7 86.85-1.95 85.85 0.05 71.9 0.05 71.9-1.5 76.35-5 76.35-19.15 71.9-21.75 71.9-23.3 80.45-27.5 82.1-21 89.2-26.65Q90.25-27.05 91.95-27.05L91.95-27.05Q95.35-27.05 97.35-24.98 99.35-22.9 99.35-19.35L99.35-19.35 99.35-3.75 103.85-1.95ZM178.79-37.75L174.44-34.35 162.44-1.6 157.24 0.95 149.29-22.6 141.84-1.6 136.64 0.95 123.79-34.45 119.04-37.3 120.04-39.3 133.74-39.3 133.74-37.75 130.09-35 140.49-5.7 147.94-26.5 145.24-34.5 140.64-37.3 141.64-39.3 156.34-39.3 156.34-37.75 151.89-34.3 161.19-5.8 171.49-34.3 162.59-37.3 163.59-39.3 178.79-39.3 178.79-37.75ZM204.09-2L203.09 0 193.59 0 193.59-4.35 187.94 0.1Q186.94 0.5 185.44 0.5L185.44 0.5Q181.14 0.5 179.21-1.65 177.29-3.8 177.29-6.8L177.29-6.8Q177.29-8.6 178.59-10.35 179.89-12.1 182.29-13.65L182.29-13.65 193.59-13.65 193.59-16.85Q193.59-20.1 191.86-21.45 190.14-22.8 187.14-22.8L187.14-22.8Q184.04-22.8 179.54-19.05L179.54-19.05 178.04-20.95 185.24-26.65Q187.24-27.05 190.04-27.05L190.04-27.05Q194.59-27.05 197.09-24.83 199.59-22.6 199.59-18.35L199.59-18.35 199.59-3.75 204.09-2ZM187.04-3.75Q190.09-3.75 193.59-6.55L193.59-6.55 193.59-11.6 184.74-11.6Q184.09-10.8 183.81-10 183.54-9.2 183.54-8.25L183.54-8.25Q183.54-6.4 184.49-5.08 185.44-3.75 187.04-3.75L187.04-3.75ZM234.49-26.55L234.49-25 221.84 0 211.44 13.2 209.54 11.7Q212.39 8.65 213.86 6.35 215.34 4.05 215.94 1.73 216.54-0.6 216.54-3.8L216.54-3.8 210.24-19.05 205.59-21.75 205.59-23.3 214.14-27.5 216.04-19.95 222.14-5.05 229.19-19.7 222.54-24.55 223.54-26.55 234.49-26.55ZM288.38-40.2L288.38-27.7 286.88-27.2 280.23-37.05 274.13-37.05 274.13-3.8 279.38-2 278.38 0 263.18 0 263.18-1.55 267.88-5.25 267.88-37.05 261.93-37.05 255.28-27.2 253.78-27.7 253.78-40.2 256.48-39.3 285.68-39.3 288.38-40.2ZM304.93-27.05Q308.23-27.05 310.85-25.33 313.48-23.6 314.95-20.65 316.43-17.7 316.43-14.15L316.43-14.15Q316.43-10.3 314.08-6.93 311.73-3.55 308.2-1.53 304.68 0.5 301.38 0.5L301.38 0.5Q298.08 0.5 295.45-1.23 292.83-2.95 291.35-5.9 289.88-8.85 289.88-12.4L289.88-12.4Q289.88-16.25 292.23-19.63 294.58-23 298.1-25.03 301.63-27.05 304.93-27.05L304.93-27.05ZM302.03-22.85Q296.38-22.85 296.38-14.8L296.38-14.8Q296.38-10.05 298.43-6.88 300.48-3.7 304.28-3.7L304.28-3.7Q309.93-3.7 309.93-11.8L309.93-11.8Q309.93-16.5 307.88-19.68 305.83-22.85 302.03-22.85L302.03-22.85ZM369.57 0.9L366.87 0 336.87 0 336.87-1.55 341.57-5.25 341.57-35.55 336.37-37.3 337.37-39.3 352.57-39.3 352.57-37.75 347.82-34.05 347.82-2.25 360.72-2.25 368.07-13.1 369.57-12.6 369.57 0.9ZM401.72-6.9L392.87 0.1Q390.87 0.5 388.07 0.5L388.07 0.5Q384.77 0.5 382.15-1.23 379.52-2.95 378.05-5.9 376.57-8.85 376.57-12.4L376.57-12.4Q376.57-16.25 378.92-19.63 381.27-23 384.8-25.03 388.32-27.05 391.62-27.05L391.62-27.05Q396.37-27.05 399-23.3 401.62-19.55 401.62-13.4L401.62-13.4 383.12-13.4Q383.42-9.15 385.45-6.45 387.47-3.75 390.97-3.75L390.97-3.75Q394.22-3.75 400.22-8.8L400.22-8.8 401.72-6.9ZM388.72-22.85Q383.32-22.85 383.07-15.45L383.07-15.45 394.77-15.45Q394.32-18.15 393.85-19.58 393.37-21 392.2-21.93 391.02-22.85 388.72-22.85L388.72-22.85ZM435.02-2L434.02 0 424.52 0 424.52-4.35 418.87 0.1Q417.87 0.5 416.37 0.5L416.37 0.5Q412.07 0.5 410.14-1.65 408.22-3.8 408.22-6.8L408.22-6.8Q408.22-8.6 409.52-10.35 410.82-12.1 413.22-13.65L413.22-13.65 424.52-13.65 424.52-16.85Q424.52-20.1 422.79-21.45 421.07-22.8 418.07-22.8L418.07-22.8Q414.97-22.8 410.47-19.05L410.47-19.05 408.97-20.95 416.17-26.65Q418.17-27.05 420.97-27.05L420.97-27.05Q425.52-27.05 428.02-24.83 430.52-22.6 430.52-18.35L430.52-18.35 430.52-3.75 435.02-2ZM417.97-3.75Q421.02-3.75 424.52-6.55L424.52-6.55 424.52-11.6 415.67-11.6Q415.02-10.8 414.74-10 414.47-9.2 414.47-8.25L414.47-8.25Q414.47-6.4 415.42-5.08 416.37-3.75 417.97-3.75L417.97-3.75ZM457.07-27Q458.72-27 459.97-26.1 461.22-25.2 461.92-23.6L461.92-23.6 458.62-19.45 456.72-19.45Q456.52-20.7 455.99-21.23 455.47-21.75 454.57-21.75L454.57-21.75Q453.47-21.75 452.24-21.18 451.02-20.6 449.47-19L449.47-19 449.47-4.1 456.47-1.95 455.47 0.05 439.02 0.05 439.02-1.5 443.47-5 443.47-19.15 439.02-21.75 439.02-23.3 447.57-27.5 449.12-21.35 454.32-26.65Q455.37-27.05 457.07-27.05L457.07-27.05 457.07-27ZM496.91-1.95L495.91 0.05 486.41 0.05 486.41-16.8Q486.41-19.55 485.56-20.65 484.71-21.75 482.51-21.75L482.51-21.75Q480.86-21.75 479.24-21.15 477.61-20.55 475.41-18.85L475.41-18.85 475.41-3.7 479.91-1.95 478.91 0.05 464.96 0.05 464.96-1.5 469.41-5 469.41-19.15 464.96-21.75 464.96-23.3 473.51-27.5 475.16-21 482.26-26.65Q483.31-27.05 485.01-27.05L485.01-27.05Q488.41-27.05 490.41-24.98 492.41-22.9 492.41-19.35L492.41-19.35 492.41-3.75 496.91-1.95Z" opacity="1" transform="matrix(1,0,0,1,0,0)" fill="#096a2e" class="slogan-text-1" data-fill-palette-color="secondary" id="text-1"></path></svg></g></svg></g></svg></g></svg></g><g><svg viewBox="0 0 228.81761918546613 242.23015552161664" height="242.23015552161664" width="228.81761918546613"><g><svg xmlns="http://www.w3.org/2000/svg" xmlns:xlink="http://www.w3.org/1999/xlink" version="1.1" x="0" y="0" viewBox="0 0.6340000033378601 93.86399841308594 99.36599731445312" enable-background="new 0 0 94.461 100" xml:space="preserve" height="242.23015552161664" width="228.81761918546613" class="icon-icon-0" data-fill-palette-color="accent" id="icon-0"><path fill="#096a2e" d="M13.132 76.351c-3.601 0-6.519-2.918-6.519-6.516 0-3.604 2.918-6.522 6.519-6.522 3.603 0 6.521 2.919 6.521 6.522C19.653 73.433 16.735 76.351 13.132 76.351" data-fill-palette-color="accent"></path><path fill="#096a2e" d="M0 100V87.223c0-4.605 3.784-8.351 8.398-8.351h9.003c4.613 0 8.731 3.745 8.731 8.351V100H0z" data-fill-palette-color="accent"></path><path fill="#096a2e" d="M80.738 75.799c3.602 0 6.521-2.928 6.521-6.522 0-3.606-2.919-6.523-6.521-6.523-3.604 0-6.521 2.919-6.521 6.523C74.217 72.871 77.134 75.799 80.738 75.799" data-fill-palette-color="accent"></path><path fill="#096a2e" d="M93.864 100V87.223c0-4.605-3.785-8.351-8.402-8.351h-8.993c-4.62 0-8.733 3.745-8.733 8.351V100H93.864z" data-fill-palette-color="accent"></path><path fill="#096a2e" d="M46.925 63.234c3.641 0 6.596 2.928 6.596 6.543 0 3.611-2.955 6.539-6.596 6.539-3.645 0-6.597-2.928-6.597-6.539C40.328 66.162 43.28 63.234 46.925 63.234" data-fill-palette-color="accent"></path><path fill="#096a2e" d="M31.039 100l5.192-14.14c2.077-7.224 8.131-7.002 8.131-7.002h2.572 2.568c0 0 6.048-0.222 8.133 7.002l5.19 14.14H31.039z" data-fill-palette-color="accent"></path><polygon fill="#096a2e" points="46.925,54.975 46.925,39.504 44.356,36.935 44.356,52.4 5.499,52.4 5.499,3.206 44.356,3.206   44.356,28.479 46.925,31.045 46.925,0.634 2.941,0.634 2.941,54.975 " data-fill-palette-color="accent"></polygon><path fill="#096a2e" d="M80.738 26.508c3.602 0 6.521-2.927 6.521-6.522 0-3.607-2.919-6.523-6.521-6.523-3.604 0-6.521 2.918-6.521 6.523C74.217 23.581 77.134 26.508 80.738 26.508" data-fill-palette-color="accent"></path><path fill="#096a2e" d="M85.461 28.588h-8.993c-1.621 0-3.174 0.467-4.516 1.266-1.594 0.634-2.942 1.739-3.868 3.131l-5.405 8.154-8.198-0.003L42.899 29.555c-0.435-0.438-1.142-0.438-1.576 0-0.438 0.435-0.44 1.142-0.003 1.579l11.019 11.02c-0.238 0.394-0.612 1.193-0.612 1.698 0 1.521 1.229 2.743 2.744 2.743H63.5c1.024 0 2.375-0.415 2.949-1.277 0.429-0.637 0.863-1.281 1.286-1.908v3.556 2.753 5.842h3.312H93.78h0.084v-5.842-2.753V36.939C93.864 32.333 90.079 28.588 85.461 28.588" data-fill-palette-color="accent"></path></svg></g></svg></g></svg></g><defs></defs></svg><rect width="395.52" height="150.04089503615697" fill="none" stroke="none" visibility="hidden"></rect></g></svg></g></svg>